<svg xmlns="http://www.w3.org/2000/svg" width="38.117" height="38.233" viewBox="855.983 634.983 38.117 38.233"><path d="M863.627 658.856a1.516 1.516 0 0 1-2.272 2.008c-3.59-4.06-5.424-8.37-5.353-12.752.074-4.267 1.952-8.52 5.776-12.578a1.52 1.52 0 0 1 2.212 2.082c-3.283 3.485-4.885 7.06-4.953 10.545-.062 3.597 1.515 7.216 4.59 10.695Zm12.827-7.352v20.284a1.409 1.409 0 0 1-2.818 0v-20.284a3.575 3.575 0 1 1 2.818 0Zm6.75 4.397a1.518 1.518 0 0 1-2.356-1.914c1.518-1.862 2.306-3.84 2.312-5.794.007-1.956-.735-3.864-2.271-5.748a1.518 1.518 0 1 1 2.355-1.915c1.996 2.446 2.955 5.05 2.948 7.663 0 2.672-1.03 5.294-2.988 7.708Zm-13.963-1.914a1.518 1.518 0 0 1-2.355 1.914c-1.958-2.414-2.98-5.036-2.989-7.708 0-2.614.953-5.217 2.952-7.663a1.518 1.518 0 1 1 2.352 1.915c-1.552 1.884-2.275 3.836-2.272 5.748.003 1.911.798 3.932 2.312 5.794Zm19.493 6.877a1.516 1.516 0 1 1-2.272-2.008c3.079-3.479 4.656-7.098 4.59-10.695-.059-3.5-1.67-7.06-4.965-10.551a1.52 1.52 0 1 1 2.213-2.083c3.823 4.06 5.7 8.311 5.772 12.579.075 4.382-1.76 8.69-5.35 12.752Z" fill="#fff" fill-rule="evenodd" data-name="wireless-network-icon"/></svg>